<svg height="469pt" viewBox="0 -5 469.33333 469" width="469pt" xmlns="http://www.w3.org/2000/svg"><path d="m122.667969 294.824219 72.894531-69.335938 34.027344 21.335938 49.195312-44.972657 67.882813 52.972657-5.335938 50.664062s-207.101562 11.5625-218.664062-10.664062zm0 0" fill="#42a5f5"/><path d="m453.332031 96.167969h-437.332031c-8.832031 0-16-7.167969-16-16s7.167969-16 16-16h437.332031c8.832031 0 16 7.167969 16 16s-7.167969 16-16 16zm0 0"/><path d="m453.332031 32.167969h-437.332031c-8.832031 0-16-7.167969-16-16s7.167969-16 16-16h437.332031c8.832031 0 16 7.167969 16 16s-7.167969 16-16 16zm0 0"/><path d="m453.332031 394.832031h-437.332031c-8.832031 0-16-7.167969-16-16s7.167969-16 16-16h437.332031c8.832031 0 16 7.167969 16 16s-7.167969 16-16 16zm0 0"/><path d="m453.332031 458.832031h-437.332031c-8.832031 0-16-7.167969-16-16s7.167969-16 16-16h437.332031c8.832031 0 16 7.167969 16 16s-7.167969 16-16 16zm0 0"/><path d="m48 245.5h-32c-8.832031 0-16-7.167969-16-16s7.167969-16 16-16h32c8.832031 0 16 7.167969 16 16s-7.167969 16-16 16zm0 0"/><path d="m48 160.167969h-32c-8.832031 0-16-7.167969-16-16s7.167969-16 16-16h32c8.832031 0 16 7.167969 16 16s-7.167969 16-16 16zm0 0"/><path d="m48 330.832031h-32c-8.832031 0-16-7.167969-16-16s7.167969-16 16-16h32c8.832031 0 16 7.167969 16 16s-7.167969 16-16 16zm0 0"/><path d="m453.332031 245.5h-32c-8.832031 0-16-7.167969-16-16s7.167969-16 16-16h32c8.832031 0 16 7.167969 16 16s-7.167969 16-16 16zm0 0"/><path d="m453.332031 160.167969h-32c-8.832031 0-16-7.167969-16-16s7.167969-16 16-16h32c8.832031 0 16 7.167969 16 16s-7.167969 16-16 16zm0 0"/><path d="m453.332031 330.832031h-32c-8.832031 0-16-7.167969-16-16s7.167969-16 16-16h32c8.832031 0 16 7.167969 16 16s-7.167969 16-16 16zm0 0"/><path d="m325.332031 320.167969h-181.332031c-20.585938 0-37.332031-16.746094-37.332031-37.335938v-117.332031c0-20.585938 16.746093-37.332031 37.332031-37.332031h181.332031c20.589844 0 37.335938 16.746093 37.335938 37.332031v117.332031c0 20.589844-16.746094 37.335938-37.335938 37.335938zm-181.332031-160c-2.945312 0-5.332031 2.386719-5.332031 5.332031v117.332031c0 2.945313 2.386719 5.335938 5.332031 5.335938h181.332031c2.945313 0 5.335938-2.390625 5.335938-5.335938v-117.332031c0-2.945312-2.390625-5.332031-5.335938-5.332031zm0 0"/><path d="m122.667969 309.5c-3.96875 0-7.957031-1.449219-11.050781-4.414062-6.378907-6.101563-6.636719-16.238282-.511719-22.636719l71.273437-74.667969c6.101563-6.378906 16.128906-6.65625 22.550782-.597656l20.605468 19.394531 38.316406-40.128906c5.949219-6.292969 15.808594-6.65625 22.25-.851563l71.273438 64c6.570312 5.886719 7.125 16.019532 1.21875 22.589844-5.890625 6.550781-16.023438 7.125-22.59375 1.214844l-59.734375-53.628906-38.570313 40.402343c-6.101562 6.378907-16.128906 6.65625-22.546874.597657l-20.609376-19.390626-60.308593 63.167969c-3.136719 3.285157-7.339844 4.949219-11.5625 4.949219zm0 0"/></svg>