<svg height="512pt" viewBox="0 -27 512 512" width="512pt" xmlns="http://www.w3.org/2000/svg"><path d="m422.398438 145.324219c-5.824219-2.519531-12.628907-1.386719-17.300782 2.941406l-74.664062 69.335937c-3.246094 3.027344-5.101563 7.273438-5.101563 11.730469 0 4.460938 1.855469 8.707031 5.101563 11.734375l74.664062 69.332032c3.03125 2.796874 6.933594 4.269531 10.902344 4.269531 2.175781 0 4.332031-.449219 6.398438-1.324219 5.824218-2.539062 9.601562-8.296875 9.601562-14.675781v-138.667969c0-6.355469-3.777344-12.117188-9.601562-14.675781zm0 0" fill="#42a5f5"/><path d="m176 32h-160c-8.832031 0-16-7.167969-16-16s7.167969-16 16-16h160c8.832031 0 16 7.167969 16 16s-7.167969 16-16 16zm0 0"/><path d="m261.332031 138.667969h-245.332031c-8.832031 0-16-7.167969-16-16s7.167969-16 16-16h245.332031c8.832031 0 16 7.167969 16 16s-7.167969 16-16 16zm0 0"/><path d="m176 245.332031h-160c-8.832031 0-16-7.167969-16-16s7.167969-16 16-16h160c8.832031 0 16 7.167969 16 16s-7.167969 16-16 16zm0 0"/><path d="m261.332031 352h-245.332031c-8.832031 0-16-7.167969-16-16s7.167969-16 16-16h245.332031c8.832031 0 16 7.167969 16 16s-7.167969 16-16 16zm0 0"/><path d="m176 458.667969h-160c-8.832031 0-16-7.167969-16-16s7.167969-16 16-16h160c8.832031 0 16 7.167969 16 16s-7.167969 16-16 16zm0 0"/><path d="m496 245.332031h-74.667969c-8.832031 0-16-7.167969-16-16s7.167969-16 16-16h74.667969c8.832031 0 16 7.167969 16 16s-7.167969 16-16 16zm0 0"/><path d="m421.332031 330.667969c-4.160156 0-8.253906-1.621094-11.304687-4.695313l-85.335938-85.332031c-6.25-6.25-6.25-16.382813 0-22.636719l85.335938-85.332031c4.566406-4.585937 11.476562-5.953125 17.429687-3.476563 5.972657 2.472657 9.875 8.320313 9.875 14.785157v170.664062c0 6.464844-3.902343 12.308594-9.875 14.785157-1.984375.851562-4.054687 1.238281-6.125 1.238281zm-62.699219-101.335938 46.699219 46.722657v-93.421876zm0 0"/></svg>