<svg height="512pt" viewBox="0 -5 512 512" width="512pt" xmlns="http://www.w3.org/2000/svg"><path d="m181.566406 89.609375-74.664062-69.332031c-4.671875-4.332032-11.457032-5.441406-17.300782-2.945313-5.824218 2.539063-9.601562 8.300781-9.601562 14.679688v138.667969c0 6.355468 3.777344 12.117187 9.601562 14.675781 2.066407.875 4.222657 1.324219 6.398438 1.324219 3.96875 0 7.871094-1.472657 10.902344-4.269532l74.664062-69.332031c3.246094-3.050781 5.101563-7.296875 5.101563-11.734375s-1.855469-8.703125-5.101563-11.734375zm0 0" fill="#42a5f5"/><path d="m496 74.679688h-160c-8.832031 0-16-7.167969-16-16 0-8.832032 7.167969-16 16-16h160c8.832031 0 16 7.167968 16 16 0 8.832031-7.167969 16-16 16zm0 0"/><path d="m496 181.34375h-245.332031c-8.832031 0-16-7.167969-16-16s7.167969-16 16-16h245.332031c8.832031 0 16 7.167969 16 16s-7.167969 16-16 16zm0 0"/><path d="m496 288.011719h-245.332031c-8.832031 0-16-7.167969-16-16s7.167969-16 16-16h245.332031c8.832031 0 16 7.167969 16 16s-7.167969 16-16 16zm0 0"/><path d="m496 394.679688h-245.332031c-8.832031 0-16-7.167969-16-16 0-8.832032 7.167969-16 16-16h245.332031c8.832031 0 16 7.167968 16 16 0 8.832031-7.167969 16-16 16zm0 0"/><path d="m496 501.34375h-245.332031c-8.832031 0-16-7.167969-16-16s7.167969-16 16-16h245.332031c8.832031 0 16 7.167969 16 16s-7.167969 16-16 16zm0 0"/><path d="m90.667969 117.34375h-74.667969c-8.832031 0-16-7.167969-16-16s7.167969-16 16-16h74.667969c8.832031 0 16 7.167969 16 16s-7.167969 16-16 16zm0 0"/><path d="m90.667969 202.679688c-2.070313 0-4.140625-.40625-6.125-1.21875-5.972657-2.472657-9.875-8.320313-9.875-14.78125v-170.667969c0-6.464844 3.902343-12.308594 9.875-14.785157 5.996093-2.496093 12.84375-1.109374 17.429687 3.476563l85.335938 85.335937c6.25 6.25 6.25 16.382813 0 22.632813l-85.335938 85.332031c-3.050781 3.050782-7.144531 4.675782-11.304687 4.675782zm16-148.035157v93.417969l46.699219-46.71875zm0 0"/></svg>